<?xml version="1.0" encoding="UTF-8" standalone="yes"?>
<!-- Generated by SVG Image Exporter plugin of NB Mind Map Swing panel -->
<svg version="1.1" baseProfile="tiny" id="svg-root" width="100%" height="100%" viewBox="0 0 951 2003" xmlns="http://www.w3.org/2000/svg">
<style>
.mindMapTitleFont {
font-family: '楷体';
font-size: 18px;
font-style: normal;
font-weight: normal;
}
</style>
<rect x="0" y="0" width="951" height="2003"  fill="rgb(64,64,64)"/>
<path d="M83.75,1001.5 C83.75,41.5 83.75,41.5 182,41.5" fill="none" stroke="rgb(255,255,255)" stroke-width="1.5" stroke-linecap="round" />
<path d="M83.75,1001.5 C83.75,146 83.75,146 191,146" fill="none" stroke="rgb(255,255,255)" stroke-width="1.5" stroke-linecap="round" />
<path d="M83.75,1001.5 C83.75,1106 83.75,1106 182,1106" fill="none" stroke="rgb(255,255,255)" stroke-width="1.5" stroke-linecap="round" />
<rect x="25" y="985.234" width="85" height="42.531" rx="5" ry="5"  fill="rgb(0,0,0)" fill-opacity="0.19" />
<rect x="20" y="980.234" width="85" height="42.531" rx="5" ry="5"  stroke="rgb(0,0,0)" stroke-width="1" stroke-linecap="round" fill="rgb(0,128,255)"/>
<text x="30" y="1006.234" fill="rgb(255,255,255)" class="mindMapTitleFont">I/O体系</text>
<rect x="158" y="25.234" width="58" height="42.531"  fill="rgb(0,0,0)" fill-opacity="0.19" />
<rect x="153" y="20.234" width="58" height="42.531"  stroke="rgb(0,0,0)" stroke-width="1" stroke-linecap="round" fill="rgb(255,100,0)"/>
<text x="163" y="46.234" fill="rgb(0,0,0)" class="mindMapTitleFont">其他</text>
<path d="M 238.6 146 L 249.8 146 L 249.8 116.5 L 290 116.5"  stroke="rgb(255,255,255)" stroke-width="1.5" stroke-linecap="round" fill="none"/>
<path d="M 238.6 146 L 249.8 146 L 249.8 175.5 L 344 175.5"  stroke="rgb(255,255,255)" stroke-width="1.5" stroke-linecap="round" fill="none"/>
<rect x="158" y="129.734" width="76" height="42.531"  fill="rgb(0,0,0)" fill-opacity="0.19" />
<rect x="153" y="124.734" width="76" height="42.531"  stroke="rgb(0,0,0)" stroke-width="1" stroke-linecap="round" fill="rgb(255,100,0)"/>
<text x="163" y="150.734" fill="rgb(0,0,0)" class="mindMapTitleFont">非流式</text>
<ellipse cx="239" cy="145.734" rx="8" ry="8"  stroke="rgb(64,64,64)" stroke-width="1" stroke-linecap="round" fill="rgb(255,255,255)"/>
<line x1="236" y1="145.734" x2="242" y2="145.734"  stroke="rgb(64,64,64)" stroke-width="1" stroke-linecap="round"/>
<rect x="266" y="100.234" width="58" height="42.531"  fill="rgb(0,0,0)" fill-opacity="0.19" />
<rect x="261" y="95.234" width="58" height="42.531"  stroke="rgb(0,0,0)" stroke-width="1" stroke-linecap="round" fill="rgb(91,255,0)"/>
<text x="271" y="121.234" fill="rgb(0,0,0)" class="mindMapTitleFont">File</text>
<rect x="266" y="159.234" width="166" height="42.531"  fill="rgb(0,0,0)" fill-opacity="0.19" />
<rect x="261" y="154.234" width="166" height="42.531"  stroke="rgb(0,0,0)" stroke-width="1" stroke-linecap="round" fill="rgb(91,255,0)"/>
<text x="271" y="180.234" fill="rgb(0,0,0)" class="mindMapTitleFont">RandomAccessFile</text>
<path d="M 220.6 1106 L 231.8 1106 L 231.8 722.5 L 281 722.5"  stroke="rgb(255,255,255)" stroke-width="1.5" stroke-linecap="round" fill="none"/>
<path d="M 220.6 1106 L 231.8 1106 L 231.8 1607.5 L 281 1607.5"  stroke="rgb(255,255,255)" stroke-width="1.5" stroke-linecap="round" fill="none"/>
<rect x="158" y="1089.734" width="58" height="42.531"  fill="rgb(0,0,0)" fill-opacity="0.19" />
<rect x="153" y="1084.734" width="58" height="42.531"  stroke="rgb(0,0,0)" stroke-width="1" stroke-linecap="round" fill="rgb(255,100,0)"/>
<text x="163" y="1110.734" fill="rgb(0,0,0)" class="mindMapTitleFont">流式</text>
<ellipse cx="221" cy="1105.734" rx="8" ry="8"  stroke="rgb(64,64,64)" stroke-width="1" stroke-linecap="round" fill="rgb(255,255,255)"/>
<line x1="218" y1="1105.734" x2="224" y2="1105.734"  stroke="rgb(64,64,64)" stroke-width="1" stroke-linecap="round"/>
<path d="M 328.6 722.5 L 339.8 722.5 L 339.8 516 L 411.5 516"  stroke="rgb(255,255,255)" stroke-width="1.5" stroke-linecap="round" fill="none"/>
<path d="M 328.6 722.5 L 339.8 722.5 L 339.8 1017.5 L 416 1017.5"  stroke="rgb(255,255,255)" stroke-width="1.5" stroke-linecap="round" fill="none"/>
<rect x="248" y="706.234" width="76" height="42.531"  fill="rgb(0,0,0)" fill-opacity="0.19" />
<rect x="243" y="701.234" width="76" height="42.531"  stroke="rgb(0,0,0)" stroke-width="1" stroke-linecap="round" fill="rgb(91,255,0)"/>
<text x="253" y="727.234" fill="rgb(0,0,0)" class="mindMapTitleFont">字节流</text>
<ellipse cx="329" cy="722.234" rx="8" ry="8"  stroke="rgb(64,64,64)" stroke-width="1" stroke-linecap="round" fill="rgb(255,255,255)"/>
<line x1="326" y1="722.234" x2="332" y2="722.234"  stroke="rgb(64,64,64)" stroke-width="1" stroke-linecap="round"/>
<path d="M 481.6 516 L 492.8 516 L 492.8 250.5 L 582.5 250.5"  stroke="rgb(255,255,255)" stroke-width="1.5" stroke-linecap="round" fill="none"/>
<path d="M 481.6 516 L 492.8 516 L 492.8 309.5 L 587 309.5"  stroke="rgb(255,255,255)" stroke-width="1.5" stroke-linecap="round" fill="none"/>
<path d="M 481.6 516 L 492.8 516 L 492.8 368.5 L 605 368.5"  stroke="rgb(255,255,255)" stroke-width="1.5" stroke-linecap="round" fill="none"/>
<path d="M 481.6 516 L 492.8 516 L 492.8 427.5 L 600.5 427.5"  stroke="rgb(255,255,255)" stroke-width="1.5" stroke-linecap="round" fill="none"/>
<path d="M 481.6 516 L 492.8 516 L 492.8 486.5 L 618.5 486.5"  stroke="rgb(255,255,255)" stroke-width="1.5" stroke-linecap="round" fill="none"/>
<path d="M 481.6 516 L 492.8 516 L 492.8 545.5 L 591.5 545.5"  stroke="rgb(255,255,255)" stroke-width="1.5" stroke-linecap="round" fill="none"/>
<path d="M 481.6 516 L 492.8 516 L 492.8 693 L 591.5 693"  stroke="rgb(255,255,255)" stroke-width="1.5" stroke-linecap="round" fill="none"/>
<rect x="356" y="499.734" width="121" height="42.531"  fill="rgb(0,0,0)" fill-opacity="0.19" />
<rect x="351" y="494.734" width="121" height="42.531"  stroke="rgb(0,0,0)" stroke-width="1" stroke-linecap="round" fill="rgb(91,255,0)"/>
<text x="361" y="520.734" fill="rgb(0,0,0)" class="mindMapTitleFont">InputStream</text>
<ellipse cx="482" cy="515.734" rx="8" ry="8"  stroke="rgb(64,64,64)" stroke-width="1" stroke-linecap="round" fill="rgb(255,255,255)"/>
<line x1="479" y1="515.734" x2="485" y2="515.734"  stroke="rgb(64,64,64)" stroke-width="1" stroke-linecap="round"/>
<rect x="509" y="234.234" width="157" height="42.531"  fill="rgb(0,0,0)" fill-opacity="0.19" />
<rect x="504" y="229.234" width="157" height="42.531"  stroke="rgb(0,0,0)" stroke-width="1" stroke-linecap="round" fill="rgb(91,255,0)"/>
<text x="514" y="255.234" fill="rgb(0,0,0)" class="mindMapTitleFont">FileInputStream</text>
<rect x="509" y="293.234" width="166" height="42.531"  fill="rgb(0,0,0)" fill-opacity="0.19" />
<rect x="504" y="288.234" width="166" height="42.531"  stroke="rgb(0,0,0)" stroke-width="1" stroke-linecap="round" fill="rgb(91,255,0)"/>
<text x="514" y="314.234" fill="rgb(0,0,0)" class="mindMapTitleFont">PipedInputStream</text>
<rect x="509" y="352.234" width="202" height="42.531"  fill="rgb(0,0,0)" fill-opacity="0.19" />
<rect x="504" y="347.234" width="202" height="42.531"  stroke="rgb(0,0,0)" stroke-width="1" stroke-linecap="round" fill="rgb(91,255,0)"/>
<text x="514" y="373.234" fill="rgb(0,0,0)" class="mindMapTitleFont">ByteArrayInputStream</text>
<rect x="509" y="411.234" width="193" height="42.531"  fill="rgb(0,0,0)" fill-opacity="0.19" />
<rect x="504" y="406.234" width="193" height="42.531"  stroke="rgb(0,0,0)" stroke-width="1" stroke-linecap="round" fill="rgb(91,255,0)"/>
<text x="514" y="432.234" fill="rgb(0,0,0)" class="mindMapTitleFont">SequenceInputStream</text>
<rect x="509" y="470.234" width="229" height="42.531"  fill="rgb(0,0,0)" fill-opacity="0.19" />
<rect x="504" y="465.234" width="229" height="42.531"  stroke="rgb(0,0,0)" stroke-width="1" stroke-linecap="round" fill="rgb(91,255,0)"/>
<text x="514" y="491.234" fill="rgb(0,0,0)" class="mindMapTitleFont">StringBufferInputStream</text>
<rect x="509" y="529.234" width="175" height="42.531"  fill="rgb(0,0,0)" fill-opacity="0.19" />
<rect x="504" y="524.234" width="175" height="42.531"  stroke="rgb(0,0,0)" stroke-width="1" stroke-linecap="round" fill="rgb(91,255,0)"/>
<text x="514" y="550.234" fill="rgb(0,0,0)" class="mindMapTitleFont">ObjectInputStream</text>
<path d="M 688.6 693 L 699.8 693 L 699.8 604.5 L 816.5 604.5"  stroke="rgb(255,255,255)" stroke-width="1.5" stroke-linecap="round" fill="none"/>
<path d="M 688.6 693 L 699.8 693 L 699.8 663.5 L 789.5 663.5"  stroke="rgb(255,255,255)" stroke-width="1.5" stroke-linecap="round" fill="none"/>
<path d="M 688.6 693 L 699.8 693 L 699.8 722.5 L 807.5 722.5"  stroke="rgb(255,255,255)" stroke-width="1.5" stroke-linecap="round" fill="none"/>
<path d="M 688.6 693 L 699.8 693 L 699.8 781.5 L 807.5 781.5"  stroke="rgb(255,255,255)" stroke-width="1.5" stroke-linecap="round" fill="none"/>
<rect x="509" y="676.734" width="175" height="42.531"  fill="rgb(0,0,0)" fill-opacity="0.19" />
<rect x="504" y="671.734" width="175" height="42.531"  stroke="rgb(0,0,0)" stroke-width="1" stroke-linecap="round" fill="rgb(91,255,0)"/>
<text x="514" y="697.734" fill="rgb(0,0,0)" class="mindMapTitleFont">FilterInputStream</text>
<ellipse cx="689" cy="692.734" rx="8" ry="8"  stroke="rgb(64,64,64)" stroke-width="1" stroke-linecap="round" fill="rgb(255,255,255)"/>
<line x1="686" y1="692.734" x2="692" y2="692.734"  stroke="rgb(64,64,64)" stroke-width="1" stroke-linecap="round"/>
<rect x="716" y="588.234" width="211" height="42.531"  fill="rgb(0,0,0)" fill-opacity="0.19" />
<rect x="711" y="583.234" width="211" height="42.531"  stroke="rgb(0,0,0)" stroke-width="1" stroke-linecap="round" fill="rgb(91,255,0)"/>
<text x="721" y="609.234" fill="rgb(0,0,0)" class="mindMapTitleFont">LineNumberInputStream</text>
<rect x="716" y="647.234" width="157" height="42.531"  fill="rgb(0,0,0)" fill-opacity="0.19" />
<rect x="711" y="642.234" width="157" height="42.531"  stroke="rgb(0,0,0)" stroke-width="1" stroke-linecap="round" fill="rgb(91,255,0)"/>
<text x="721" y="668.234" fill="rgb(0,0,0)" class="mindMapTitleFont">DataInputStream</text>
<rect x="716" y="706.234" width="193" height="42.531"  fill="rgb(0,0,0)" fill-opacity="0.19" />
<rect x="711" y="701.234" width="193" height="42.531"  stroke="rgb(0,0,0)" stroke-width="1" stroke-linecap="round" fill="rgb(91,255,0)"/>
<text x="721" y="727.234" fill="rgb(0,0,0)" class="mindMapTitleFont">BufferedInputStream</text>
<rect x="716" y="765.234" width="193" height="42.531"  fill="rgb(0,0,0)" fill-opacity="0.19" />
<rect x="711" y="760.234" width="193" height="42.531"  stroke="rgb(0,0,0)" stroke-width="1" stroke-linecap="round" fill="rgb(91,255,0)"/>
<text x="721" y="786.234" fill="rgb(0,0,0)" class="mindMapTitleFont">PushBackInputStream</text>
<path d="M 490.6 1017.5 L 501.8 1017.5 L 501.8 840.5 L 596 840.5"  stroke="rgb(255,255,255)" stroke-width="1.5" stroke-linecap="round" fill="none"/>
<path d="M 490.6 1017.5 L 501.8 1017.5 L 501.8 899.5 L 600.5 899.5"  stroke="rgb(255,255,255)" stroke-width="1.5" stroke-linecap="round" fill="none"/>
<path d="M 490.6 1017.5 L 501.8 1017.5 L 501.8 958.5 L 618.5 958.5"  stroke="rgb(255,255,255)" stroke-width="1.5" stroke-linecap="round" fill="none"/>
<line x1="490" y1="1017" x2="605" y2="1017"  stroke="rgb(255,255,255)" stroke-width="1.5" stroke-linecap="round"/>
<path d="M 490.6 1017.5 L 501.8 1017.5 L 501.8 1135.5 L 605 1135.5"  stroke="rgb(255,255,255)" stroke-width="1.5" stroke-linecap="round" fill="none"/>
<rect x="356" y="1001.234" width="130" height="42.531"  fill="rgb(0,0,0)" fill-opacity="0.19" />
<rect x="351" y="996.234" width="130" height="42.531"  stroke="rgb(0,0,0)" stroke-width="1" stroke-linecap="round" fill="rgb(91,255,0)"/>
<text x="361" y="1022.234" fill="rgb(0,0,0)" class="mindMapTitleFont">OutputStream</text>
<ellipse cx="491" cy="1017.234" rx="8" ry="8"  stroke="rgb(64,64,64)" stroke-width="1" stroke-linecap="round" fill="rgb(255,255,255)"/>
<line x1="488" y1="1017.234" x2="494" y2="1017.234"  stroke="rgb(64,64,64)" stroke-width="1" stroke-linecap="round"/>
<rect x="518" y="824.234" width="166" height="42.531"  fill="rgb(0,0,0)" fill-opacity="0.19" />
<rect x="513" y="819.234" width="166" height="42.531"  stroke="rgb(0,0,0)" stroke-width="1" stroke-linecap="round" fill="rgb(91,255,0)"/>
<text x="523" y="845.234" fill="rgb(0,0,0)" class="mindMapTitleFont">FileOutputStream</text>
<rect x="518" y="883.234" width="175" height="42.531"  fill="rgb(0,0,0)" fill-opacity="0.19" />
<rect x="513" y="878.234" width="175" height="42.531"  stroke="rgb(0,0,0)" stroke-width="1" stroke-linecap="round" fill="rgb(91,255,0)"/>
<text x="523" y="904.234" fill="rgb(0,0,0)" class="mindMapTitleFont">PipedOutputStream</text>
<rect x="518" y="942.234" width="211" height="42.531"  fill="rgb(0,0,0)" fill-opacity="0.19" />
<rect x="513" y="937.234" width="211" height="42.531"  stroke="rgb(0,0,0)" stroke-width="1" stroke-linecap="round" fill="rgb(91,255,0)"/>
<text x="523" y="963.234" fill="rgb(0,0,0)" class="mindMapTitleFont">ByteArrayOutputStream</text>
<rect x="518" y="1001.234" width="184" height="42.531"  fill="rgb(0,0,0)" fill-opacity="0.19" />
<rect x="513" y="996.234" width="184" height="42.531"  stroke="rgb(0,0,0)" stroke-width="1" stroke-linecap="round" fill="rgb(91,255,0)"/>
<text x="523" y="1022.234" fill="rgb(0,0,0)" class="mindMapTitleFont">ObjectOutputStream</text>
<path d="M 706.6 1135.5 L 717.8 1135.5 L 717.8 1076.5 L 812 1076.5"  stroke="rgb(255,255,255)" stroke-width="1.5" stroke-linecap="round" fill="none"/>
<line x1="706" y1="1135" x2="830" y2="1135"  stroke="rgb(255,255,255)" stroke-width="1.5" stroke-linecap="round"/>
<path d="M 706.6 1135.5 L 717.8 1135.5 L 717.8 1194.5 L 816.5 1194.5"  stroke="rgb(255,255,255)" stroke-width="1.5" stroke-linecap="round" fill="none"/>
<rect x="518" y="1119.234" width="184" height="42.531"  fill="rgb(0,0,0)" fill-opacity="0.19" />
<rect x="513" y="1114.234" width="184" height="42.531"  stroke="rgb(0,0,0)" stroke-width="1" stroke-linecap="round" fill="rgb(91,255,0)"/>
<text x="523" y="1140.234" fill="rgb(0,0,0)" class="mindMapTitleFont">FilterOutputStream</text>
<ellipse cx="707" cy="1135.234" rx="8" ry="8"  stroke="rgb(64,64,64)" stroke-width="1" stroke-linecap="round" fill="rgb(255,255,255)"/>
<line x1="704" y1="1135.234" x2="710" y2="1135.234"  stroke="rgb(64,64,64)" stroke-width="1" stroke-linecap="round"/>
<rect x="734" y="1060.234" width="166" height="42.531"  fill="rgb(0,0,0)" fill-opacity="0.19" />
<rect x="729" y="1055.234" width="166" height="42.531"  stroke="rgb(0,0,0)" stroke-width="1" stroke-linecap="round" fill="rgb(91,255,0)"/>
<text x="739" y="1081.234" fill="rgb(0,0,0)" class="mindMapTitleFont">DataOutputStream</text>
<rect x="734" y="1119.234" width="202" height="42.531"  fill="rgb(0,0,0)" fill-opacity="0.19" />
<rect x="729" y="1114.234" width="202" height="42.531"  stroke="rgb(0,0,0)" stroke-width="1" stroke-linecap="round" fill="rgb(91,255,0)"/>
<text x="739" y="1140.234" fill="rgb(0,0,0)" class="mindMapTitleFont">BufferedOutputStream</text>
<rect x="734" y="1178.234" width="175" height="42.531"  fill="rgb(0,0,0)" fill-opacity="0.19" />
<rect x="729" y="1173.234" width="175" height="42.531"  stroke="rgb(0,0,0)" stroke-width="1" stroke-linecap="round" fill="rgb(91,255,0)"/>
<text x="739" y="1199.234" fill="rgb(0,0,0)" class="mindMapTitleFont">PrintOutputStream</text>
<path d="M 328.6 1607.5 L 339.8 1607.5 L 339.8 1430.5 L 389 1430.5"  stroke="rgb(255,255,255)" stroke-width="1.5" stroke-linecap="round" fill="none"/>
<path d="M 328.6 1607.5 L 339.8 1607.5 L 339.8 1814 L 389 1814"  stroke="rgb(255,255,255)" stroke-width="1.5" stroke-linecap="round" fill="none"/>
<rect x="248" y="1591.234" width="76" height="42.531"  fill="rgb(0,0,0)" fill-opacity="0.19" />
<rect x="243" y="1586.234" width="76" height="42.531"  stroke="rgb(0,0,0)" stroke-width="1" stroke-linecap="round" fill="rgb(91,255,0)"/>
<text x="253" y="1612.234" fill="rgb(0,0,0)" class="mindMapTitleFont">字符流</text>
<ellipse cx="329" cy="1607.234" rx="8" ry="8"  stroke="rgb(64,64,64)" stroke-width="1" stroke-linecap="round" fill="rgb(255,255,255)"/>
<line x1="326" y1="1607.234" x2="332" y2="1607.234"  stroke="rgb(64,64,64)" stroke-width="1" stroke-linecap="round"/>
<path d="M 436.6 1430.5 L 447.8 1430.5 L 447.8 1253.5 L 533 1253.5"  stroke="rgb(255,255,255)" stroke-width="1.5" stroke-linecap="round" fill="none"/>
<path d="M 436.6 1430.5 L 447.8 1430.5 L 447.8 1312.5 L 537.5 1312.5"  stroke="rgb(255,255,255)" stroke-width="1.5" stroke-linecap="round" fill="none"/>
<path d="M 436.6 1430.5 L 447.8 1430.5 L 447.8 1371.5 L 551 1371.5"  stroke="rgb(255,255,255)" stroke-width="1.5" stroke-linecap="round" fill="none"/>
<line x1="436" y1="1430" x2="524" y2="1430"  stroke="rgb(255,255,255)" stroke-width="1.5" stroke-linecap="round"/>
<path d="M 436.6 1430.5 L 447.8 1430.5 L 447.8 1489.5 L 519.5 1489.5"  stroke="rgb(255,255,255)" stroke-width="1.5" stroke-linecap="round" fill="none"/>
<path d="M 436.6 1430.5 L 447.8 1430.5 L 447.8 1548.5 L 524 1548.5"  stroke="rgb(255,255,255)" stroke-width="1.5" stroke-linecap="round" fill="none"/>
<path d="M 436.6 1430.5 L 447.8 1430.5 L 447.8 1607.5 L 519.5 1607.5"  stroke="rgb(255,255,255)" stroke-width="1.5" stroke-linecap="round" fill="none"/>
<rect x="356" y="1414.234" width="76" height="42.531"  fill="rgb(0,0,0)" fill-opacity="0.19" />
<rect x="351" y="1409.234" width="76" height="42.531"  stroke="rgb(0,0,0)" stroke-width="1" stroke-linecap="round" fill="rgb(91,255,0)"/>
<text x="361" y="1435.234" fill="rgb(0,0,0)" class="mindMapTitleFont">Writer</text>
<ellipse cx="437" cy="1430.234" rx="8" ry="8"  stroke="rgb(64,64,64)" stroke-width="1" stroke-linecap="round" fill="rgb(255,255,255)"/>
<line x1="434" y1="1430.234" x2="440" y2="1430.234"  stroke="rgb(64,64,64)" stroke-width="1" stroke-linecap="round"/>
<rect x="464" y="1237.234" width="148" height="42.531"  fill="rgb(0,0,0)" fill-opacity="0.19" />
<rect x="459" y="1232.234" width="148" height="42.531"  stroke="rgb(0,0,0)" stroke-width="1" stroke-linecap="round" fill="rgb(91,255,0)"/>
<text x="469" y="1258.234" fill="rgb(0,0,0)" class="mindMapTitleFont">BufferedWriter</text>
<rect x="464" y="1296.234" width="157" height="42.531"  fill="rgb(0,0,0)" fill-opacity="0.19" />
<rect x="459" y="1291.234" width="157" height="42.531"  stroke="rgb(0,0,0)" stroke-width="1" stroke-linecap="round" fill="rgb(91,255,0)"/>
<text x="469" y="1317.234" fill="rgb(0,0,0)" class="mindMapTitleFont">CharArrayWriter</text>
<line x1="652" y1="1371" x2="731" y2="1371"  stroke="rgb(255,255,255)" stroke-width="1.5" stroke-linecap="round"/>
<rect x="464" y="1355.234" width="184" height="42.531"  fill="rgb(0,0,0)" fill-opacity="0.19" />
<rect x="459" y="1350.234" width="184" height="42.531"  stroke="rgb(0,0,0)" stroke-width="1" stroke-linecap="round" fill="rgb(91,255,0)"/>
<text x="469" y="1376.234" fill="rgb(0,0,0)" class="mindMapTitleFont">OutPutStreamWriter</text>
<ellipse cx="653" cy="1371.234" rx="8" ry="8"  stroke="rgb(64,64,64)" stroke-width="1" stroke-linecap="round" fill="rgb(255,255,255)"/>
<line x1="650" y1="1371.234" x2="656" y2="1371.234"  stroke="rgb(64,64,64)" stroke-width="1" stroke-linecap="round"/>
<rect x="680" y="1355.234" width="112" height="42.531"  fill="rgb(0,0,0)" fill-opacity="0.19" />
<rect x="675" y="1350.234" width="112" height="42.531"  stroke="rgb(0,0,0)" stroke-width="1" stroke-linecap="round" fill="rgb(91,255,0)"/>
<text x="685" y="1376.234" fill="rgb(0,0,0)" class="mindMapTitleFont">FileWriter</text>
<rect x="464" y="1414.234" width="130" height="42.531"  fill="rgb(0,0,0)" fill-opacity="0.19" />
<rect x="459" y="1409.234" width="130" height="42.531"  stroke="rgb(0,0,0)" stroke-width="1" stroke-linecap="round" fill="rgb(91,255,0)"/>
<text x="469" y="1435.234" fill="rgb(0,0,0)" class="mindMapTitleFont">FilterWriter</text>
<rect x="464" y="1473.234" width="121" height="42.531"  fill="rgb(0,0,0)" fill-opacity="0.19" />
<rect x="459" y="1468.234" width="121" height="42.531"  stroke="rgb(0,0,0)" stroke-width="1" stroke-linecap="round" fill="rgb(91,255,0)"/>
<text x="469" y="1494.234" fill="rgb(0,0,0)" class="mindMapTitleFont">PipedWriter</text>
<rect x="464" y="1532.234" width="130" height="42.531"  fill="rgb(0,0,0)" fill-opacity="0.19" />
<rect x="459" y="1527.234" width="130" height="42.531"  stroke="rgb(0,0,0)" stroke-width="1" stroke-linecap="round" fill="rgb(91,255,0)"/>
<text x="469" y="1553.234" fill="rgb(0,0,0)" class="mindMapTitleFont">StringWriter</text>
<rect x="464" y="1591.234" width="121" height="42.531"  fill="rgb(0,0,0)" fill-opacity="0.19" />
<rect x="459" y="1586.234" width="121" height="42.531"  stroke="rgb(0,0,0)" stroke-width="1" stroke-linecap="round" fill="rgb(91,255,0)"/>
<text x="469" y="1612.234" fill="rgb(0,0,0)" class="mindMapTitleFont">PrintWriter</text>
<path d="M 436.6 1814 L 447.8 1814 L 447.8 1666.5 L 524 1666.5"  stroke="rgb(255,255,255)" stroke-width="1.5" stroke-linecap="round" fill="none"/>
<path d="M 436.6 1814 L 447.8 1814 L 447.8 1725.5 L 537.5 1725.5"  stroke="rgb(255,255,255)" stroke-width="1.5" stroke-linecap="round" fill="none"/>
<path d="M 436.6 1814 L 447.8 1814 L 447.8 1784.5 L 519.5 1784.5"  stroke="rgb(255,255,255)" stroke-width="1.5" stroke-linecap="round" fill="none"/>
<path d="M 436.6 1814 L 447.8 1814 L 447.8 1843.5 L 533 1843.5"  stroke="rgb(255,255,255)" stroke-width="1.5" stroke-linecap="round" fill="none"/>
<path d="M 436.6 1814 L 447.8 1814 L 447.8 1902.5 L 546.5 1902.5"  stroke="rgb(255,255,255)" stroke-width="1.5" stroke-linecap="round" fill="none"/>
<path d="M 436.6 1814 L 447.8 1814 L 447.8 1961.5 L 524 1961.5"  stroke="rgb(255,255,255)" stroke-width="1.5" stroke-linecap="round" fill="none"/>
<rect x="356" y="1797.734" width="76" height="42.531"  fill="rgb(0,0,0)" fill-opacity="0.19" />
<rect x="351" y="1792.734" width="76" height="42.531"  stroke="rgb(0,0,0)" stroke-width="1" stroke-linecap="round" fill="rgb(91,255,0)"/>
<text x="361" y="1818.734" fill="rgb(0,0,0)" class="mindMapTitleFont">Reader</text>
<ellipse cx="437" cy="1813.734" rx="8" ry="8"  stroke="rgb(64,64,64)" stroke-width="1" stroke-linecap="round" fill="rgb(255,255,255)"/>
<line x1="434" y1="1813.734" x2="440" y2="1813.734"  stroke="rgb(64,64,64)" stroke-width="1" stroke-linecap="round"/>
<rect x="464" y="1650.234" width="130" height="42.531"  fill="rgb(0,0,0)" fill-opacity="0.19" />
<rect x="459" y="1645.234" width="130" height="42.531"  stroke="rgb(0,0,0)" stroke-width="1" stroke-linecap="round" fill="rgb(91,255,0)"/>
<text x="469" y="1671.234" fill="rgb(0,0,0)" class="mindMapTitleFont">StringReader</text>
<rect x="464" y="1709.234" width="157" height="42.531"  fill="rgb(0,0,0)" fill-opacity="0.19" />
<rect x="459" y="1704.234" width="157" height="42.531"  stroke="rgb(0,0,0)" stroke-width="1" stroke-linecap="round" fill="rgb(91,255,0)"/>
<text x="469" y="1730.234" fill="rgb(0,0,0)" class="mindMapTitleFont">CharArrayReader</text>
<rect x="464" y="1768.234" width="121" height="42.531"  fill="rgb(0,0,0)" fill-opacity="0.19" />
<rect x="459" y="1763.234" width="121" height="42.531"  stroke="rgb(0,0,0)" stroke-width="1" stroke-linecap="round" fill="rgb(91,255,0)"/>
<text x="469" y="1789.234" fill="rgb(0,0,0)" class="mindMapTitleFont">PipedReader</text>
<line x1="616" y1="1843" x2="722" y2="1843"  stroke="rgb(255,255,255)" stroke-width="1.5" stroke-linecap="round"/>
<rect x="464" y="1827.234" width="148" height="42.531"  fill="rgb(0,0,0)" fill-opacity="0.19" />
<rect x="459" y="1822.234" width="148" height="42.531"  stroke="rgb(0,0,0)" stroke-width="1" stroke-linecap="round" fill="rgb(91,255,0)"/>
<text x="469" y="1848.234" fill="rgb(0,0,0)" class="mindMapTitleFont">BufferedReader</text>
<ellipse cx="617" cy="1843.234" rx="8" ry="8"  stroke="rgb(64,64,64)" stroke-width="1" stroke-linecap="round" fill="rgb(255,255,255)"/>
<line x1="614" y1="1843.234" x2="620" y2="1843.234"  stroke="rgb(64,64,64)" stroke-width="1" stroke-linecap="round"/>
<rect x="644" y="1827.234" width="166" height="42.531"  fill="rgb(0,0,0)" fill-opacity="0.19" />
<rect x="639" y="1822.234" width="166" height="42.531"  stroke="rgb(0,0,0)" stroke-width="1" stroke-linecap="round" fill="rgb(91,255,0)"/>
<text x="649" y="1848.234" fill="rgb(0,0,0)" class="mindMapTitleFont">LineNumberReader</text>
<line x1="643" y1="1902" x2="722" y2="1902"  stroke="rgb(255,255,255)" stroke-width="1.5" stroke-linecap="round"/>
<rect x="464" y="1886.234" width="175" height="42.531"  fill="rgb(0,0,0)" fill-opacity="0.19" />
<rect x="459" y="1881.234" width="175" height="42.531"  stroke="rgb(0,0,0)" stroke-width="1" stroke-linecap="round" fill="rgb(91,255,0)"/>
<text x="469" y="1907.234" fill="rgb(0,0,0)" class="mindMapTitleFont">InputStreamReader</text>
<ellipse cx="644" cy="1902.234" rx="8" ry="8"  stroke="rgb(64,64,64)" stroke-width="1" stroke-linecap="round" fill="rgb(255,255,255)"/>
<line x1="641" y1="1902.234" x2="647" y2="1902.234"  stroke="rgb(64,64,64)" stroke-width="1" stroke-linecap="round"/>
<rect x="671" y="1886.234" width="112" height="42.531"  fill="rgb(0,0,0)" fill-opacity="0.19" />
<rect x="666" y="1881.234" width="112" height="42.531"  stroke="rgb(0,0,0)" stroke-width="1" stroke-linecap="round" fill="rgb(91,255,0)"/>
<text x="676" y="1907.234" fill="rgb(0,0,0)" class="mindMapTitleFont">FileReader</text>
<line x1="598" y1="1961" x2="695" y2="1961"  stroke="rgb(255,255,255)" stroke-width="1.5" stroke-linecap="round"/>
<rect x="464" y="1945.234" width="130" height="42.531"  fill="rgb(0,0,0)" fill-opacity="0.19" />
<rect x="459" y="1940.234" width="130" height="42.531"  stroke="rgb(0,0,0)" stroke-width="1" stroke-linecap="round" fill="rgb(91,255,0)"/>
<text x="469" y="1966.234" fill="rgb(0,0,0)" class="mindMapTitleFont">FilterReader</text>
<ellipse cx="599" cy="1961.234" rx="8" ry="8"  stroke="rgb(64,64,64)" stroke-width="1" stroke-linecap="round" fill="rgb(255,255,255)"/>
<line x1="596" y1="1961.234" x2="602" y2="1961.234"  stroke="rgb(64,64,64)" stroke-width="1" stroke-linecap="round"/>
<rect x="626" y="1945.234" width="148" height="42.531"  fill="rgb(0,0,0)" fill-opacity="0.19" />
<rect x="621" y="1940.234" width="148" height="42.531"  stroke="rgb(0,0,0)" stroke-width="1" stroke-linecap="round" fill="rgb(91,255,0)"/>
<text x="631" y="1966.234" fill="rgb(0,0,0)" class="mindMapTitleFont">PushBackReader</text>
</svg>