<?xml version="1.0" encoding="UTF-8" standalone="yes"?>
<!-- Generated by SVG Image Exporter plugin of NB Mind Map Swing panel -->
<svg version="1.1" baseProfile="tiny" id="svg-root" width="100%" height="100%" viewBox="0 0 641 434" xmlns="http://www.w3.org/2000/svg">
<style>
.mindMapTitleFont {
font-family: serif;
font-size: 18px;
font-style: normal;
font-weight: bold;
}
</style>
<path d="M81.5,217.0 C81.5,75 81.5,75 179,75" fill="none" stroke="rgb(255,255,255)" stroke-width="1.5" stroke-linecap="round" />
<path d="M81.5,217.0 C81.5,185.5 81.5,185.5 206,185.5" fill="none" stroke="rgb(255,255,255)" stroke-width="1.5" stroke-linecap="round" />
<path d="M81.5,217.0 C81.5,327.5 81.5,327.5 201,327.5" fill="none" stroke="rgb(255,255,255)" stroke-width="1.5" stroke-linecap="round" />
<rect x="25" y="198.708" width="82" height="46.583" rx="5" ry="5"  fill="rgb(0,0,0)" fill-opacity="0.19" />
<rect x="20" y="193.708" width="82" height="46.583" rx="5" ry="5"  stroke="rgb(0,0,0)" stroke-width="1" stroke-linecap="round" fill="rgb(3,26,49)"/>
<text x="30" y="222.708" fill="rgb(255,255,255)" class="mindMapTitleFont">Iterator</text>
<path d="M 217.6 75 L 228.8 75 L 228.8 43.5 L 286 43.5"  stroke="rgb(255,255,255)" stroke-width="1.5" stroke-linecap="round" fill="none"/>
<path d="M 217.6 75 L 228.8 75 L 228.8 106.5 L 294 106.5"  stroke="rgb(255,255,255)" stroke-width="1.5" stroke-linecap="round" fill="none"/>
<rect x="155" y="56.708" width="58" height="46.583"  fill="rgb(0,0,0)" fill-opacity="0.19" />
<rect x="150" y="51.708" width="58" height="46.583"  stroke="rgb(0,0,0)" stroke-width="1" stroke-linecap="round" fill="rgb(177,191,204)"/>
<text x="160" y="80.708" fill="rgb(0,0,0)" class="mindMapTitleFont">Map</text>
<ellipse cx="218" cy="74.708" rx="8" ry="8"  stroke="rgb(64,64,64)" stroke-width="1" stroke-linecap="round" fill="rgb(255,255,255)"/>
<line x1="215" y1="74.708" x2="221" y2="74.708"  stroke="rgb(64,64,64)" stroke-width="1" stroke-linecap="round"/>
<rect x="245" y="25.208" width="92" height="46.583"  fill="rgb(0,0,0)" fill-opacity="0.19" />
<rect x="240" y="20.208" width="92" height="46.583"  stroke="rgb(0,0,0)" stroke-width="1" stroke-linecap="round" fill="rgb(253,253,253)"/>
<text x="250" y="49.208" fill="rgb(0,0,0)" class="mindMapTitleFont">TreeMap</text>
<line x1="357" y1="106" x2="456" y2="106"  stroke="rgb(255,255,255)" stroke-width="1.5" stroke-linecap="round"/>
<rect x="245" y="88.208" width="108" height="46.583"  fill="rgb(0,0,0)" fill-opacity="0.19" />
<rect x="240" y="83.208" width="108" height="46.583"  stroke="rgb(0,0,0)" stroke-width="1" stroke-linecap="round" fill="rgb(253,253,253)"/>
<text x="250" y="112.208" fill="rgb(0,0,0)" class="mindMapTitleFont">HashhMap</text>
<ellipse cx="358" cy="106.208" rx="8" ry="8"  stroke="rgb(64,64,64)" stroke-width="1" stroke-linecap="round" fill="rgb(255,255,255)"/>
<line x1="355" y1="106.208" x2="361" y2="106.208"  stroke="rgb(64,64,64)" stroke-width="1" stroke-linecap="round"/>
<rect x="385" y="88.208" width="153" height="46.583"  fill="rgb(0,0,0)" fill-opacity="0.19" />
<rect x="380" y="83.208" width="153" height="46.583"  stroke="rgb(0,0,0)" stroke-width="1" stroke-linecap="round" fill="rgb(253,253,253)"/>
<text x="390" y="112.208" fill="rgb(0,0,0)" class="mindMapTitleFont">LinkedHashMap</text>
<rect x="155" y="167.208" width="112" height="46.583"  fill="rgb(0,0,0)" fill-opacity="0.19" />
<rect x="150" y="162.208" width="112" height="46.583"  stroke="rgb(0,0,0)" stroke-width="1" stroke-linecap="round" fill="rgb(177,191,204)"/>
<text x="160" y="191.208" fill="rgb(0,0,0)" class="mindMapTitleFont">ListIterator</text>
<path d="M 261.6 327.5 L 272.8 327.5 L 272.8 296 L 307 296"  stroke="rgb(255,255,255)" stroke-width="1.5" stroke-linecap="round" fill="none"/>
<path d="M 261.6 327.5 L 272.8 327.5 L 272.8 390.5 L 310 390.5"  stroke="rgb(255,255,255)" stroke-width="1.5" stroke-linecap="round" fill="none"/>
<rect x="155" y="309.208" width="102" height="46.583"  fill="rgb(0,0,0)" fill-opacity="0.19" />
<rect x="150" y="304.208" width="102" height="46.583"  stroke="rgb(0,0,0)" stroke-width="1" stroke-linecap="round" fill="rgb(177,191,204)"/>
<text x="160" y="333.208" fill="rgb(0,0,0)" class="mindMapTitleFont">Collection</text>
<ellipse cx="262" cy="327.208" rx="8" ry="8"  stroke="rgb(64,64,64)" stroke-width="1" stroke-linecap="round" fill="rgb(255,255,255)"/>
<line x1="259" y1="327.208" x2="265" y2="327.208"  stroke="rgb(64,64,64)" stroke-width="1" stroke-linecap="round"/>
<path d="M 339.6 296 L 350.8 296 L 350.8 264.5 L 402 264.5"  stroke="rgb(255,255,255)" stroke-width="1.5" stroke-linecap="round" fill="none"/>
<path d="M 339.6 296 L 350.8 296 L 350.8 327.5 L 405 327.5"  stroke="rgb(255,255,255)" stroke-width="1.5" stroke-linecap="round" fill="none"/>
<rect x="289" y="277.708" width="46" height="46.583"  fill="rgb(0,0,0)" fill-opacity="0.19" />
<rect x="284" y="272.708" width="46" height="46.583"  stroke="rgb(0,0,0)" stroke-width="1" stroke-linecap="round" fill="rgb(253,253,253)"/>
<text x="294" y="301.708" fill="rgb(0,0,0)" class="mindMapTitleFont">Set</text>
<ellipse cx="340" cy="295.708" rx="8" ry="8"  stroke="rgb(64,64,64)" stroke-width="1" stroke-linecap="round" fill="rgb(255,255,255)"/>
<line x1="337" y1="295.708" x2="343" y2="295.708"  stroke="rgb(64,64,64)" stroke-width="1" stroke-linecap="round"/>
<rect x="367" y="246.208" width="80" height="46.583"  fill="rgb(0,0,0)" fill-opacity="0.19" />
<rect x="362" y="241.208" width="80" height="46.583"  stroke="rgb(0,0,0)" stroke-width="1" stroke-linecap="round" fill="rgb(253,253,253)"/>
<text x="372" y="270.208" fill="rgb(0,0,0)" class="mindMapTitleFont">TreeSet</text>
<line x1="457" y1="327" x2="550" y2="327"  stroke="rgb(255,255,255)" stroke-width="1.5" stroke-linecap="round"/>
<rect x="367" y="309.208" width="86" height="46.583"  fill="rgb(0,0,0)" fill-opacity="0.19" />
<rect x="362" y="304.208" width="86" height="46.583"  stroke="rgb(0,0,0)" stroke-width="1" stroke-linecap="round" fill="rgb(253,253,253)"/>
<text x="372" y="333.208" fill="rgb(0,0,0)" class="mindMapTitleFont">HashSet</text>
<ellipse cx="458" cy="327.208" rx="8" ry="8"  stroke="rgb(64,64,64)" stroke-width="1" stroke-linecap="round" fill="rgb(255,255,255)"/>
<line x1="455" y1="327.208" x2="461" y2="327.208"  stroke="rgb(64,64,64)" stroke-width="1" stroke-linecap="round"/>
<rect x="485" y="309.208" width="141" height="46.583"  fill="rgb(0,0,0)" fill-opacity="0.19" />
<rect x="480" y="304.208" width="141" height="46.583"  stroke="rgb(0,0,0)" stroke-width="1" stroke-linecap="round" fill="rgb(253,253,253)"/>
<text x="490" y="333.208" fill="rgb(0,0,0)" class="mindMapTitleFont">LinkedHashSet</text>
<rect x="289" y="372.208" width="52" height="46.583"  fill="rgb(0,0,0)" fill-opacity="0.19" />
<rect x="284" y="367.208" width="52" height="46.583"  stroke="rgb(0,0,0)" stroke-width="1" stroke-linecap="round" fill="rgb(253,253,253)"/>
<text x="294" y="396.208" fill="rgb(0,0,0)" class="mindMapTitleFont">List</text>
</svg>